<svg width="330" height="330" viewBox="0 0 330 330" fill="none" xmlns="http://www.w3.org/2000/svg">
<path d="M30.0709 211.162H22.0694C20.8277 211.162 20 210.334 20 209.093V120.8C20 119.558 20.8277 118.73 22.0694 118.73H33.5888C34.6925 118.73 35.8651 119.144 36.0721 120.11L52.9029 188.675H53.7307L70.5615 120.11C70.7685 119.144 71.9411 118.73 73.0448 118.73H84.5642C85.8059 118.73 86.6336 119.558 86.6336 120.8V209.093C86.6336 210.334 85.8059 211.162 84.5642 211.162H76.5627C75.3211 211.162 74.4933 210.334 74.4933 209.093V148.115H73.5966L59.5939 202.678C59.318 203.781 58.2833 204.264 57.1796 204.264H49.454C48.3503 204.264 47.3156 203.781 47.0397 202.678L33.037 148.115H32.1403V209.093C32.1403 210.334 31.3125 211.162 30.0709 211.162Z" fill="black"/>
<path d="M107.28 158.506H219.978V171.375H107.28V158.506Z" fill="black"/>
<path d="M307.931 162.181C309.172 162.181 310 163.009 310 164.251V173.425C310 200.878 299.929 212.881 276.407 212.881C252.472 212.881 240.607 200.189 240.607 164.94C240.607 129.692 252.472 117 276.27 117C294.342 117 307.31 123.898 308.828 147.834C308.966 149.282 308.414 150.11 307.034 150.11H297.722C296.549 150.11 295.722 149.627 295.584 148.316C293.79 133.693 286.202 130.589 276.338 130.589C263.026 130.589 254.403 136.59 254.403 164.94C254.403 193.291 263.026 199.292 276.683 199.292C289.927 199.292 296.687 194.325 296.687 173.701V173.494H273.855C272.614 173.494 271.786 172.666 271.786 171.424V164.251C271.786 163.009 272.614 162.181 273.855 162.181H307.931Z" fill="black"/>
</svg>
